<svg id="Layer_1" data-name="Layer 1" xmlns="http://www.w3.org/2000/svg" viewBox="0 0 100 60"><defs><style>.cls-1{fill:#202c39;}.cls-2{fill:#f6ac7b;}</style></defs><title>18F-HumanDB-LogoR1</title><g id="_9HElXD" data-name="9HElXD"><path class="cls-1" d="M26.71543,42.78747c-4.2898.41892-8.56655.84272-12.82271,1.61117a3.56655,3.56655,0,0,1-.38186.12833.88878.88878,0,0,0-.278.336c-1.16429,2.00981-2.31054,4.0288-3.46408,6.0446a1.031,1.031,0,0,1-.49925.52359.52445.52445,0,0,1-.6012-.22822,1.00766,1.00766,0,0,1-.01337-.73929,21.14985,21.14985,0,0,1,1.946-5.02539,1.73983,1.73983,0,0,0,.30388-.94687,1.10246,1.10246,0,0,1-.016-.25517c.0377-.25893.28016-.263.41867-.4262a2.62053,2.62053,0,0,0,.27613-.68794q.3146-.79484.66725-1.5739c.47053-1.04138.98861-2.061,1.54476-3.05922a53.83672,53.83672,0,0,1,3.73831-5.75222q.44576-.60387.90472-1.19786.22156-.287.44725-.57069.85023-1.06855,1.76282-2.08543c.2957-.32847.63647-.63518.91158-.98.28156-.35288.17827-.54817-.13733-.84744a11.0411,11.0411,0,0,1-1.38639-1.72114l-1.62319-2.31654A10.52321,10.52321,0,0,1,16.21,16.2921a14.32858,14.32858,0,0,1,.45243-2.79375c.216-.84045.74258-1.74142.49993-2.59611a.52344.52344,0,0,1,.03052-.41679,1.46753,1.46753,0,0,1,.94939-.20609.38876.38876,0,0,1,.24859.27555.76811.76811,0,0,1-.04007.3739,10.09783,10.09783,0,0,0-.60521,2.91867,11.94382,11.94382,0,0,0,.62089,3.1479,5.57322,5.57322,0,0,0,.60472,1.48023,6.81316,6.81316,0,0,0,.78084.91139c.309.32822.60468.66875.90023,1.00918.69527.69527,1.30615,1.50446,1.951,2.24721a14.511,14.511,0,0,1,1.76242,2.11721,9.27264,9.27264,0,0,1,1.62828-1.81429c.59105-.656,1.20116-1.29442,1.80363-1.93985a25.41409,25.41409,0,0,0,3.32357-4.16305,40.46728,40.46728,0,0,0,2.24627-4.84232c.165-.381,1.00573-2.26986,1.52179-1.97062a.866.866,0,0,1,.3592.59223,6.26843,6.26843,0,0,1-.1198,1.57125c-.04039.41117-.011.82706-.08585,1.23522a10.78306,10.78306,0,0,1-1.46619,3.37948l-1.00433,1.66754c-.23443.38923-.46887.77849-.71153,1.16265-.84486,1.33753-1.76119,2.62875-2.71656,3.88932-.68873.90874-1.441,1.77061-2.075,2.72-.22323.33426-.63963.75156-.48626,1.15788a3.44065,3.44065,0,0,0,.64644.82631q.50907.62428.9714,1.28491a22.77072,22.77072,0,0,1,1.656,2.76106,22.98068,22.98068,0,0,1,2.07974,6.07821c.28222,1.47685.38146,2.98333.57372,4.47351a8.02073,8.02073,0,0,1,.05193,2.586,1.5333,1.5333,0,0,1-.6359.93551c-.343.21577-.74213.00046-1.067-.1563a3.41689,3.41689,0,0,1-.56621-.319,4.36271,4.36271,0,0,1-1.16314-2.36161c-.044-.1344-.11388-.26049-.1556-.39543a2.056,2.056,0,0,1-.08485-.4031c-.012-.12172-.078-.13431-.17181-.125Q27.716,42.69039,26.71543,42.78747Zm-10.0486-3.705a1.07684,1.07684,0,0,0,.25081.04769c1.72624-.1551,3.44788-.356,5.17039-.547.86992-.09646,1.74014-.19052,2.61134-.27488a18.33293,18.33293,0,0,0,2.99961-.40221,14.13168,14.13168,0,0,0-.9072-2.98017,6.14415,6.14415,0,0,1-1.31135.17837c-.66177.09777-1.32027.24367-1.97824.36484-1.10867.20417-2.21694.41064-3.326.61251-.76758.13971-1.58158.12427-2.06948.83312C17.61545,37.62848,17.09047,38.32647,16.66683,39.0825Zm11.887,2.11274c-.1276-.64615-.32372-1.29153-.47862-1.93394-.06191-.25676-.20273-.24186-.431-.20728-3.40589.516-6.81758.99727-10.22759,1.48727a9.56553,9.56553,0,0,0-1.62353.25422c-.28982.05229-.406.22864-.54154.47785-.33371.61369-.65246,1.22765-1.02261,1.8199a2.83422,2.83422,0,0,1,.64372-.08435c.397-.0587.78792-.09621,1.18494-.16485q1.29074-.22316,2.58249-.44045c1.72228-.28745,3.44753-.55854,5.17872-.787q1.27437-.16817,2.55292-.30245c.43372-.045.87034-.10109,1.30583-.12458A5.9703,5.9703,0,0,0,28.55382,41.19524Zm-2.12751-7.283c-.21542-.42739-2.03224-4.248-2.47956-3.72265-.64294.755-1.41948,1.3822-2.10915,2.0979q-.64972.67424-1.25084,1.39316c-.20015.23939-.39709.48179-.58777.72881-.04973.06442-.378.61323-.44539.61173a1.18816,1.18816,0,0,0,.281-.04048c1.12006-.2312,2.25221-.396,3.38292-.56483A23.54923,23.54923,0,0,1,26.42631,33.91227Z"/><path class="cls-1" d="M21.84017,17.538a3.6443,3.6443,0,0,1,.024-.7206,3.43572,3.43572,0,0,1,.696-1.74993,2.90844,2.90844,0,0,1,1.33314-.89478c.26306-.0879.53754-.08984.79917-.1612a1.27011,1.27011,0,0,1,.707-.08852,1.96562,1.96562,0,0,1,.29025.10109,5.49692,5.49692,0,0,1,2.0736,1.34337,1.9062,1.9062,0,0,1,.468.84692,1.71111,1.71111,0,0,1-.14026,1.03044,4.27166,4.27166,0,0,1-.56924.88734c-.7195.92128-1.714,1.99855-3.00506,1.7914a3.46691,3.46691,0,0,1-.5701-.095,3.82574,3.82574,0,0,1-.631-.28944,3.10583,3.10583,0,0,1-1.12219-.90366A2.20746,2.20746,0,0,1,21.84017,17.538Zm2.228-.11182a1.14759,1.14759,0,0,0,.09854.43185.27162.27162,0,0,0,.11748.142.31083.31083,0,0,0,.13651.01947,1.2729,1.2729,0,0,0,.43046-.053,1.1029,1.1029,0,0,0,.432-.34044,3.17746,3.17746,0,0,0,.47853-.724,1.27008,1.27008,0,0,0,.1425-.67679c-.08715-.73234-.85781-.5923-1.26252-.21613a2.01951,2.01951,0,0,0-.57354,1.41708Z"/></g><g id="_3yCtG4" data-name="3yCtG4"><path class="cls-2" d="M34.23447,30.39429c.19236-1.00506.39262-2.00868.57524-3.0155.28357-1.56335.551-3.12964.84105-4.69175a.39411.39411,0,0,1,.26268-.2626c.61442-.02368,1.23019-.01219,1.90177-.01219l-.53212,3.08081h2.535l.54737-3.05066h2.12436L41.03966,30.622h-2.1126l.552-3.18251H36.94608L36.369,30.64117H34.23447Z"/><path class="cls-2" d="M49.44455,30.60957c.289-1.622.54256-3.21729.86481-4.79859a2.34646,2.34646,0,0,1,2.40954-2.00253c.28692-.01471.57576-.01421.86275-.00057a2.1879,2.1879,0,0,1,1.65008.71537,3.58123,3.58123,0,0,1,3.19682-.62032,1.79306,1.79306,0,0,1,1.43391,2.18876c-.25732,1.49734-.52679,2.99259-.79627,4.51822H56.95152q.25982-1.51385.519-3.02122c.06067-.35063.127-.70026.19053-1.0504.101-.55693-.00335-.81155-.36984-.9034a.91339.91339,0,0,0-1.16991.55827,12.17623,12.17623,0,0,0-.24073,1.20648c-.17544.98371-.34477,1.9685-.5192,2.95239a2.71111,2.71111,0,0,1-.07966.27668H53.19758c.14-.81852.27672-1.619.414-2.41943.09949-.58011.20545-1.15919.298-1.74041.08371-.52593-.01321-.73674-.35742-.83126a.91654.91654,0,0,0-1.18223.53842c-.12438.461-.18837.93868-.27284,1.41012-.08932.4985-.17012.99852-.25733,1.4974s-.17769.99694-.27221,1.526Z"/><path class="cls-1" d="M82.4642,30.60735c.46807-2.661.9281-5.2904,1.40175-7.91729.01885-.10454.16761-.26613.25523-.26573,1.35567.00613,2.71123.03468,4.06682.05825a.28574.28574,0,0,1,.04078.00516,1.98522,1.98522,0,0,1,1.79777,1.39784,2.45785,2.45785,0,0,1-.99494,2.40625c-.04528.03038-.091.06013-.06776.0448a4.39269,4.39269,0,0,1,.65988,1.11362A2.56544,2.56544,0,0,1,88.206,30.306a4.088,4.088,0,0,1-1.23227.2878C85.4825,30.6282,83.99,30.60735,82.4642,30.60735ZM84.811,28.97714c.60432,0,1.149.01408,1.69229-.0074a1.54415,1.54415,0,0,0,.587-.15993A.90212.90212,0,0,0,87.531,27.794c-.06656-.20512-.31247-.477-.49937-.49534-.63-.06182-1.26975-.02353-1.92545-.02353Zm.57014-3.27949c.33289,0,.61712.01226.89983-.00316a5.62241,5.62241,0,0,0,1.01188-.10213.88886.88886,0,0,0,.59312-.96885c-.03532-.4417-.38294-.50275-.71-.522-.48772-.02875-.97841-.00746-1.51053-.00746Z"/><path class="cls-1" d="M74.39531,30.64094c.47592-2.69388.938-5.32362,1.414-7.95085.019-.10485.17053-.26617.25965-.26574,1.30119.00633,2.61136-.05188,3.90107.08192a2.266,2.266,0,0,1,2.09964,2.913c-.14406.823-.28173,1.64708-.43306,2.46869a2.91393,2.91393,0,0,1-2.85111,2.68678,7.7997,7.7997,0,0,1-.94228.06332C76.70674,30.64543,75.57022,30.64094,74.39531,30.64094Zm3.24407-6.326-.77216,4.41939c.53613,0,1.04443.038,1.54449-.0099a1.15835,1.15835,0,0,0,1.10219-.99658c.15489-.80565.30751-1.61279.42193-2.42482a.78.78,0,0,0-.78568-.98021C78.66222,24.28451,78.16891,24.3149,77.63938,24.3149Z"/><path class="cls-2" d="M61.02006,26.11218a2.18608,2.18608,0,0,1,2.04621-2.21609,7.6968,7.6968,0,0,1,2.24.02163,1.77687,1.77687,0,0,1,1.497,2.14474q-.183,1.23835-.43462,2.46633a2.314,2.314,0,0,1-2.2593,2.11829,8.409,8.409,0,0,1-2.24178-.02872A1.7128,1.7128,0,0,1,60.317,29.00681a1.9764,1.9764,0,0,1,1.43221-2.13991,5.54109,5.54109,0,0,1,2.80335-.03611,6.57664,6.57664,0,0,0,.10366-.73209.53776.53776,0,0,0-.4206-.57973,1.05822,1.05822,0,0,0-1.215.41619.40661.40661,0,0,1-.27523.16925C62.1716,26.12,61.59718,26.11218,61.02006,26.11218Zm2.17032,3.29539a.97883.97883,0,0,0,1.08092-1.06476c.00021-.40316-.22575-.573-.768-.57744A.93691.93691,0,0,0,62.43362,28.819C62.42976,29.22614,62.66171,29.40653,63.19038,29.40757Z"/><path class="cls-2" d="M73.05313,30.62353H70.97075c.19575-1.12555.38806-2.22734.57861-3.32942.05594-.32357.12279-.64636.15627-.97243.04528-.441-.15647-.66255-.60239-.70259a.99377.99377,0,0,0-1.22735.95142c-.22124,1.23913-.45156,2.4768-.65383,3.719-.0447.27453-.13539.36748-.41268.35757-.56007-.02-1.12137-.006-1.75153-.006.09515-.5819.18212-1.13751.27751-1.69167.15319-.88993.31476-1.77843.4677-2.6684a2.55155,2.55155,0,0,1,2.47386-2.421,6.66653,6.66653,0,0,1,2.23.14645,1.75366,1.75366,0,0,1,1.37123,2.0875c-.226,1.47361-.515,2.93758-.77839,4.40543A.77165.77165,0,0,1,73.05313,30.62353Z"/><path class="cls-2" d="M49.51633,23.91172c-.28887,1.611-.5446,3.17836-.85694,4.73438a2.39147,2.39147,0,0,1-2.32256,2.0293,7.22872,7.22872,0,0,1-2.23182-.14761,1.75659,1.75659,0,0,1-1.36946-2.05549c.22738-1.51562.52029-3.02141.78925-4.55319h2.12942c-.226,1.28592-.45012,2.5619-.67472,3.83779-.00949.05393-.02583.10668-.03465.16069-.10408.63682.01118.9016.42858.98715a.96057.96057,0,0,0,1.25965-.73608c.191-.96686.34848-1.94035.521-2.91087.079-.44415.16011-.88792.24283-1.34607Z"/></g></svg>