<svg xmlns="http://www.w3.org/2000/svg" xmlns:xlink="http://www.w3.org/1999/xlink" viewBox="17448 -1609 40 40"><defs><style>.a{fill:#8f9bab;}.b{clip-path:url(#a);}.c{fill:#fff;}</style><clipPath id="a"><path class="a" d="M20,0A20,20,0,1,1,0,20,20,20,0,0,1,20,0Z" transform="translate(114)"/></clipPath></defs><g transform="translate(15983 -1638)"><path class="a" d="M20,0A20,20,0,1,1,0,20,20,20,0,0,1,20,0Z" transform="translate(1465 29)"/><g class="b" transform="translate(1351 29)"><path class="c" d="M29.286-3.134a6.63,6.63,0,0,1-1.43,4.278,4.285,4.285,0,0,1-3.443,1.785H4.873A4.285,4.285,0,0,1,1.43,1.144,6.63,6.63,0,0,1,0-3.134,32.87,32.87,0,0,1,.194-6.807a19.733,19.733,0,0,1,.721-3.478,11.579,11.579,0,0,1,1.338-3A6.4,6.4,0,0,1,4.4-15.318a5.943,5.943,0,0,1,3.077-.789,9.889,9.889,0,0,0,7.161,2.929A9.889,9.889,0,0,0,21.8-16.107a5.943,5.943,0,0,1,3.077.789,6.4,6.4,0,0,1,2.151,2.036,11.579,11.579,0,0,1,1.338,3,19.733,19.733,0,0,1,.721,3.478A32.871,32.871,0,0,1,29.286-3.134ZM20.855-29.64a8.465,8.465,0,0,1,2.574,6.212,8.465,8.465,0,0,1-2.574,6.212,8.465,8.465,0,0,1-6.212,2.574,8.465,8.465,0,0,1-6.212-2.574,8.465,8.465,0,0,1-2.574-6.212A8.465,8.465,0,0,1,8.431-29.64a8.465,8.465,0,0,1,6.212-2.574A8.465,8.465,0,0,1,20.855-29.64Z" transform="translate(120 39)"/></g></g></svg>