<svg xmlns="http://www.w3.org/2000/svg" viewBox="5098 -1493 24 24"><defs><style>.a{fill:#fff;}</style></defs><path class="a" d="M12,24A12,12,0,0,1,3.52,3.505,12,12,0,0,1,20.48,20.5,11.929,11.929,0,0,1,12,24ZM8.245,14.98l-.571,2.286a7.293,7.293,0,0,0,3.307.857V20H12.9V18c2.14-.39,3.47-1.766,3.47-3.592,0-1.772-.977-2.871-3.265-3.674-1.543-.578-2.326-1-2.326-1.673,0-.411.217-1.1,1.673-1.1a6.3,6.3,0,0,1,2.671.591l.145.062.572-2.286a6.407,6.407,0,0,0-2.816-.653V3.959H11.1V5.837c-2.04.4-3.307,1.729-3.307,3.47,0,1.675,1.083,2.783,3.51,3.592,1.479.493,2.082.989,2.082,1.715,0,.744-.737,1.224-1.877,1.224A6.826,6.826,0,0,1,8.245,14.98Z" transform="translate(5098 -1493)"/></svg>