<svg xmlns="http://www.w3.org/2000/svg" xmlns:xlink="http://www.w3.org/1999/xlink" viewBox="9627 -1489 20 20"><defs><style>.a{clip-path:url(#a);}.b{fill:rgba(0,0,0,0);}.c{fill:#00cddb;}</style><clipPath id="a"><path d="M10,20A10,10,0,1,1,20,10,10.011,10.011,0,0,1,10,20ZM8.308,9.564a.523.523,0,0,1,.4.187c.29.29.1.727,0,.9L7.187,13.668A2.512,2.512,0,0,0,7,14.6a1.9,1.9,0,0,0,1.834,1.834c.124.011.249.017.372.017a3.71,3.71,0,0,0,2.271-.763.436.436,0,0,0,.157-.287.324.324,0,0,0-.064-.241.415.415,0,0,0-.325-.146.4.4,0,0,0-.2.053,1.023,1.023,0,0,1-.531.187.521.521,0,0,1-.4-.187c-.291-.292-.1-.728,0-.9l1.524-3.016a2.505,2.505,0,0,0,.186-.932A1.9,1.9,0,0,0,9.985,8.384c-.124-.011-.248-.017-.37-.017a3.707,3.707,0,0,0-2.272.763.441.441,0,0,0-.151.247.329.329,0,0,0,.058.281.416.416,0,0,0,.326.146.393.393,0,0,0,.2-.052A1.02,1.02,0,0,1,8.308,9.564ZM11.29,4A1.71,1.71,0,1,0,13,5.71,1.712,1.712,0,0,0,11.29,4Z"/></clipPath></defs><g transform="translate(9627 -1489)"><path d="M10,20A10,10,0,1,1,20,10,10.011,10.011,0,0,1,10,20ZM8.308,9.564a.523.523,0,0,1,.4.187c.29.29.1.727,0,.9L7.187,13.668A2.512,2.512,0,0,0,7,14.6a1.9,1.9,0,0,0,1.834,1.834c.124.011.249.017.372.017a3.71,3.71,0,0,0,2.271-.763.436.436,0,0,0,.157-.287.324.324,0,0,0-.064-.241.415.415,0,0,0-.325-.146.4.4,0,0,0-.2.053,1.023,1.023,0,0,1-.531.187.521.521,0,0,1-.4-.187c-.291-.292-.1-.728,0-.9l1.524-3.016a2.505,2.505,0,0,0,.186-.932A1.9,1.9,0,0,0,9.985,8.384c-.124-.011-.248-.017-.37-.017a3.707,3.707,0,0,0-2.272.763.441.441,0,0,0-.151.247.329.329,0,0,0,.058.281.416.416,0,0,0,.326.146.393.393,0,0,0,.2-.052A1.02,1.02,0,0,1,8.308,9.564ZM11.29,4A1.71,1.71,0,1,0,13,5.71,1.712,1.712,0,0,0,11.29,4Z"/><g class="a"><rect class="b" width="20" height="20"/><rect class="c" width="20" height="20"/></g></g></svg>