<svg xmlns="http://www.w3.org/2000/svg" xmlns:xlink="http://www.w3.org/1999/xlink" viewBox="2044 -1397 53 53"><defs><style>.a{fill:#094bb1;}.b{fill:rgba(0,0,0,0);}.c{clip-path:url(#a);}.d{fill:#4f6683;}</style><clipPath id="a"><path class="a" d="M0-53v7.055A11.1,11.1,0,0,0,8.123-35.291a61.675,61.675,0,0,0,32.338,0,11.1,11.1,0,0,0,8.121-10.654V-53ZM11.043-15.457v2.206A13.263,13.263,0,0,0,24.291,0,13.265,13.265,0,0,0,37.542-13.251v-2.206A13.265,13.265,0,0,0,24.291-28.708,13.263,13.263,0,0,0,11.043-15.457Z" transform="translate(248.35 57) rotate(180)"/></clipPath></defs><g transform="translate(1846 -1454)"><rect class="b" width="53" height="53" transform="translate(251 110) rotate(180)"/><path class="a" d="M0-53v7.055A11.1,11.1,0,0,0,8.123-35.291a61.675,61.675,0,0,0,32.338,0,11.1,11.1,0,0,0,8.121-10.654V-53ZM11.043-15.457v2.206A13.263,13.263,0,0,0,24.291,0,13.265,13.265,0,0,0,37.542-13.251v-2.206A13.265,13.265,0,0,0,24.291-28.708,13.263,13.263,0,0,0,11.043-15.457Z" transform="translate(248.35 57) rotate(180)"/><g class="c"><rect class="b" width="53" height="53" transform="translate(251 110) rotate(180)"/><rect class="d" width="53" height="53" transform="translate(251 110) rotate(180)"/></g></g></svg>