<svg xmlns="http://www.w3.org/2000/svg" viewBox="5098 -1375 24 24"><defs><style>.a{fill:none;stroke:#fff;stroke-linecap:square;stroke-miterlimit:10;stroke-width:2px;}</style></defs><g transform="translate(5099 -1374)"><path class="a" d="M20,9V2H2A2.006,2.006,0,0,1,0,0V17a2.946,2.946,0,0,0,3,3H20V13" transform="translate(0 2)"/><path class="a" d="M15,4V0H2A2.006,2.006,0,0,0,0,2H0A2.006,2.006,0,0,0,2,4"/><path class="a" d="M7,4H2A2.006,2.006,0,0,1,0,2H0A2.006,2.006,0,0,1,2,0H7Z" transform="translate(15 11)"/></g></svg>